<?xml version="1.0" encoding="UTF-8" standalone="no"?>
<!-- Created with Inkscape (http://www.inkscape.org/) -->

<svg
   xmlns:dc="http://purl.org/dc/elements/1.1/"
   xmlns:cc="http://creativecommons.org/ns#"
   xmlns:rdf="http://www.w3.org/1999/02/22-rdf-syntax-ns#"
   xmlns:svg="http://www.w3.org/2000/svg"
   xmlns="http://www.w3.org/2000/svg"
   xmlns:xlink="http://www.w3.org/1999/xlink"
   xmlns:sodipodi="http://sodipodi.sourceforge.net/DTD/sodipodi-0.dtd"
   xmlns:inkscape="http://www.inkscape.org/namespaces/inkscape"
   width="10mm"
   height="10mm"
   viewBox="0 0 35.433074 35.433068"
   id="svg4470"
   version="1.1"
   inkscape:version="0.91 r13725"
   sodipodi:docname="cli.svg">
  <defs
     id="defs4472">
    <radialGradient
       r="16"
       gradientTransform="matrix(1.5315,0,0,1.028,-3.9699,29.405)"
       cx="15.286"
       cy="33.369999"
       gradientUnits="userSpaceOnUse"
       id="radialGradient4554">
      <stop
         offset="0"
         stop-color="#f00"
         id="stop3009" />
      <stop
         offset="1"
         stop-color="#800000"
         id="stop3011" />
    </radialGradient>
    <linearGradient
       y2="4.2326002"
       x2="7.2297001"
       gradientTransform="matrix(1.0345,0,0,1,4.1192,31.948)"
       y1="28.798"
       gradientUnits="userSpaceOnUse"
       x1="28.211"
       id="linearGradient4556">
      <stop
         offset="0"
         stop-opacity=".19417"
         stop-color="#fff"
         id="stop2800" />
      <stop
         offset="1"
         stop-opacity="0"
         stop-color="#fff"
         id="stop2802" />
    </linearGradient>
    <linearGradient
       y2="2.5"
       x2="20.540001"
       gradientTransform="matrix(1.0334,0,0,0.9055,3.5706,32.126)"
       y1="5.9130998"
       gradientUnits="userSpaceOnUse"
       x1="20.540001"
       id="linearGradient4558">
      <stop
         offset="0"
         stop-opacity="0"
         id="stop2782" />
      <stop
         offset="1"
         stop-opacity=".23301"
         stop-color="#fff"
         id="stop2784" />
    </linearGradient>
    <radialGradient
       r="16"
       gradientTransform="matrix(1.5315,0,0,1.028,-3.9699,29.405)"
       cx="15.286"
       cy="33.369999"
       gradientUnits="userSpaceOnUse"
       id="radialGradient4554-3">
      <stop
         offset="0"
         stop-color="#f00"
         id="stop3009-6" />
      <stop
         offset="1"
         stop-color="#800000"
         id="stop3011-7" />
    </radialGradient>
    <radialGradient
       cx="25.712"
       cy="48.735001"
       r="21.856001"
       id="F"
       xlink:href="#E"
       gradientUnits="userSpaceOnUse"
       gradientTransform="matrix(1,0,0,0.09243698,0,44.229759)" />
    <linearGradient
       id="E">
      <stop
         id="R"
         stop-color="#2e3436" />
      <stop
         id="S"
         offset="1"
         stop-color="#2e3436"
         stop-opacity="0" />
    </linearGradient>
    <radialGradient
       cx="13.559"
       cy="12.06"
       r="16.219"
       id="G"
       xlink:href="#D"
       gradientUnits="userSpaceOnUse"
       gradientTransform="matrix(0.6174379,2.5604989,-3.7886681,0.9135993,49.367351,-37.86865)" />
    <linearGradient
       id="D">
      <stop
         id="P"
         stop-color="#eeeeec" />
      <stop
         id="Q"
         offset="1"
         stop-color="#d3d7cf" />
    </linearGradient>
    <linearGradient
       y1="2.438"
       x2="0"
       y2="43.34"
       id="H"
       xlink:href="#C"
       gradientUnits="userSpaceOnUse" />
    <linearGradient
       id="C">
      <stop
         id="N"
         stop-color="#fff"
         stop-opacity="0.8" />
      <stop
         id="O"
         offset="1"
         stop-color="#fff"
         stop-opacity="0" />
    </linearGradient>
    <filter
       x="-0.16"
       y="-0.15099999"
       width="1.321"
       height="1.302"
       id="K"
       style="color-interpolation-filters:sRGB">
      <feGaussianBlur
         stdDeviation="0.5327"
         id="T" />
    </filter>
    <radialGradient
       cx="34.130001"
       cy="8.6090002"
       r="3.03"
       id="I"
       xlink:href="#D"
       gradientUnits="userSpaceOnUse"
       gradientTransform="matrix(1.9999999,2.0717464e-7,-2.1678585e-7,2.0927836,-34.124995,-9.2675658)" />
    <linearGradient
       x1="34.130001"
       y1="8.75"
       x2="36.533001"
       y2="6.3629999"
       id="J"
       xlink:href="#C"
       gradientUnits="userSpaceOnUse" />
    <linearGradient
       id="linearGradient2431">
      <stop
         id="stop2433"
         style="stop-color:#c6c6c6"
         offset="0" />
      <stop
         id="stop2439"
         style="stop-color:#434343"
         offset=".13501" />
      <stop
         id="stop2441"
         style="stop-color:#f9f9f9"
         offset=".64724" />
      <stop
         id="stop2435"
         style="stop-color:#bcbcbc"
         offset="1" />
    </linearGradient>
    <radialGradient
       id="radialGradient4554-36"
       gradientUnits="userSpaceOnUse"
       cy="33.369999"
       cx="15.286"
       gradientTransform="matrix(1.5315,0,0,1.028,-3.9699,29.405)"
       r="16">
      <stop
         id="stop3009-7"
         stop-color="#f00"
         offset="0" />
      <stop
         id="stop3011-5"
         stop-color="#800000"
         offset="1" />
    </radialGradient>
    <inkscape:perspective
       id="perspective10"
       inkscape:persp3d-origin="372.04724 : 350.78738 : 1"
       inkscape:vp_z="744.09447 : 526.18107 : 1"
       inkscape:vp_y="0 : 999.99996 : 0"
       inkscape:vp_x="0 : 526.18107 : 1"
       sodipodi:type="inkscape:persp3d" />
    <inkscape:perspective
       sodipodi:type="inkscape:persp3d"
       inkscape:vp_x="0 : 526.18107 : 1"
       inkscape:vp_y="0 : 999.99996 : 0"
       inkscape:vp_z="744.09447 : 526.18107 : 1"
       inkscape:persp3d-origin="372.04724 : 350.78738 : 1"
       id="perspective2390" />
    <linearGradient
       id="linearGradient11462">
      <stop
         offset="0"
         style="stop-color:#80ff26"
         id="stop11464" />
      <stop
         offset="1"
         style="stop-color:#2c9600"
         id="stop11466" />
    </linearGradient>
    <linearGradient
       inkscape:collect="always"
       x1="2"
       y1="2"
       x2="28"
       gradientUnits="userSpaceOnUse"
       y2="25"
       id="linearGradient2422">
      <stop
         offset="0"
         style="stop-color:#eeeeec"
         id="stop3214" />
      <stop
         offset="1"
         style="stop-color:#8a8a7c"
         id="stop3217" />
    </linearGradient>
    <linearGradient
       inkscape:collect="always"
       gradientTransform="matrix(0.93333,0,0,0.92593,1,1)"
       x2="30"
       gradientUnits="userSpaceOnUse"
       y2="27"
       id="linearGradient2425">
      <stop
         offset="0"
         style="stop-color:#b0b1ae"
         id="stop3206" />
      <stop
         offset="1"
         style="stop-color:#5f5f5d"
         id="stop3208" />
    </linearGradient>
  </defs>
  <sodipodi:namedview
     id="base"
     pagecolor="#ffffff"
     bordercolor="#666666"
     borderopacity="1.0"
     inkscape:pageopacity="0.0"
     inkscape:pageshadow="2"
     inkscape:zoom="2.5939139"
     inkscape:cx="128.48005"
     inkscape:cy="-14.560244"
     inkscape:document-units="px"
     inkscape:current-layer="layer1"
     showgrid="false"
     fit-margin-top="1"
     fit-margin-left="1"
     fit-margin-right="1"
     fit-margin-bottom="1"
     width="115mm"
     height="25mm" />
  <metadata
     id="metadata4475">
    <rdf:RDF>
      <cc:Work
         rdf:about="">
        <dc:format>image/svg+xml</dc:format>
        <dc:type
           rdf:resource="http://purl.org/dc/dcmitype/StillImage" />
        <dc:title></dc:title>
      </cc:Work>
    </rdf:RDF>
  </metadata>
  <g
     inkscape:label="Layer 1"
     inkscape:groupmode="layer"
     id="layer1"
     transform="translate(-108.65907,-63.198912)">
    <g
       inkscape:label="Calque 1"
       id="layer1-6"
       transform="translate(111.20248,66.088675)">
      <rect
         x="16"
         y="12.5"
         width="6"
         height="0"
         ry="0"
         style="fill:#427bc3"
         id="rect3465" />
      <g
         id="g2427">
        <path
           d="m 4.9839,1 20.032,0 c 2.207,0 3.984,1.7768 3.984,3.9839 l 0,17.032 c 0,2.207 -1.777,3.984 -3.984,3.984 l -20.032,0 c -2.2072,0 -3.984,-1.777 -3.984,-3.984 l 0,-17.032 c 0,-2.2072 1.7768,-3.984 3.9839,-3.984 z"
           style="fill:url(#linearGradient2425)"
           id="rect2420"
           inkscape:connector-curvature="0" />
        <path
           d="m 4.9441,2 20.112,0 c 1.631,0 2.944,1.3131 2.944,2.9441 l 0,17.112 c 0,1.631 -1.313,2.944 -2.944,2.944 l -20.112,0 c -1.6309,0 -2.944,-1.313 -2.944,-2.944 l 0,-17.112 c 0,-1.6309 1.3131,-2.944 2.9441,-2.944 z"
           style="fill:url(#linearGradient2422)"
           id="rect2422"
           inkscape:connector-curvature="0" />
        <path
           d="M 5,5 25,5 25,22 5,22 5,5 Z"
           style="fill:#3465a4"
           id="rect2424"
           inkscape:connector-curvature="0" />
        <path
           d="m 13,26 4,0 0,2 -4,0 0,-2 z"
           style="fill:#555753"
           id="rect3231"
           inkscape:connector-curvature="0" />
        <path
           d="m 5.5,28 19,0 c 0.277,0 0.5,0.223 0.5,0.5 0,0.277 -0.223,0.5 -0.5,0.5 l -19,0 C 5.223,29 5,28.777 5,28.5 5,28.223 5.223,28 5.5,28 Z"
           style="fill:#888a85"
           id="rect3233"
           inkscape:connector-curvature="0" />
        <path
           d="M 4,4 4,23 26,23 26,4 4,4 Z M 5,5 25,5 25,22 5,22 5,5 Z"
           style="fill:#555753"
           id="rect3245"
           inkscape:connector-curvature="0" />
        <g
           transform="matrix(0.86806,0,0,0.86806,2.0708,2.0711)"
           id="g2431">
          <path
             d="M 6.5312,7.125 C 6.2914,7.1693 6.1192,7.3812 6.125,7.625 l 0,2.125 c -0.0031,0.2059 0.1212,0.392 0.3125,0.469 l 6.0005,2.343 -6.0005,2.344 C 6.2462,14.983 6.1219,15.169 6.125,15.375 l 0,2.125 c -0.0036,0.168 0.078,0.326 0.2167,0.421 0.1387,0.094 0.3158,0.112 0.4708,0.048 l 9.5625,-3.938 c 0.191,-0.076 0.316,-0.263 0.313,-0.469 l 0,-2 C 16.691,11.357 16.566,11.17 16.375,11.094 L 6.8125,7.1562 C 6.7238,7.1188 6.626,7.1079 6.5312,7.125 Z"
             style="fill:#888a85"
             id="path2419"
             inkscape:connector-curvature="0" />
          <path
             d="m 6.6218,9.7397 0,-2.1279 9.5802,3.9412 0,2.008 -9.5802,3.941 0,-2.128 7.2112,-2.808 -7.2112,-2.8263 z"
             style="fill:#eeeeec"
             id="path3281"
             inkscape:connector-curvature="0" />
        </g>
        <g
           transform="matrix(0.87731,0,0,0.87731,2.5457,2.2604)"
           id="g2438">
          <path
             d="m 16.094,17.719 c -0.19,0.06 -0.317,0.238 -0.313,0.437 l 0,1.25 c 0.006,0.239 0.199,0.432 0.438,0.438 l 6.656,0 c 0.239,-0.006 0.432,-0.199 0.437,-0.438 l 0,-1.25 c -0.005,-0.239 -0.198,-0.432 -0.437,-0.437 l -6.656,0 c -0.042,-0.006 -0.084,-0.006 -0.125,0 z"
             style="fill:#888a85"
             id="path2424"
             inkscape:connector-curvature="0" />
          <path
             d="m 22.881,18.157 0,1.236 -6.665,0 0,-1.236 6.665,0 z"
             style="fill:#eeeeec"
             id="text3274"
             inkscape:connector-curvature="0" />
        </g>
      </g>
    </g>
  </g>
</svg>
