<?xml version="1.0" encoding="UTF-8" standalone="no"?>
<!-- Created with Inkscape (http://www.inkscape.org/) -->

<svg
   xmlns:dc="http://purl.org/dc/elements/1.1/"
   xmlns:cc="http://creativecommons.org/ns#"
   xmlns:rdf="http://www.w3.org/1999/02/22-rdf-syntax-ns#"
   xmlns:svg="http://www.w3.org/2000/svg"
   xmlns="http://www.w3.org/2000/svg"
   xmlns:xlink="http://www.w3.org/1999/xlink"
   xmlns:sodipodi="http://sodipodi.sourceforge.net/DTD/sodipodi-0.dtd"
   xmlns:inkscape="http://www.inkscape.org/namespaces/inkscape"
   width="10.261149mm"
   height="10.459578mm"
   viewBox="0 0 36.358406 37.061493"
   id="svg4470"
   version="1.1"
   inkscape:version="0.91 r13725"
   sodipodi:docname="job_monitoring.svg">
  <defs
     id="defs4472">
    <radialGradient
       r="16"
       gradientTransform="matrix(1.5315,0,0,1.028,-3.9699,29.405)"
       cx="15.286"
       cy="33.369999"
       gradientUnits="userSpaceOnUse"
       id="radialGradient4554">
      <stop
         offset="0"
         stop-color="#f00"
         id="stop3009" />
      <stop
         offset="1"
         stop-color="#800000"
         id="stop3011" />
    </radialGradient>
    <linearGradient
       y2="4.2326002"
       x2="7.2297001"
       gradientTransform="matrix(1.0345,0,0,1,4.1192,31.948)"
       y1="28.798"
       gradientUnits="userSpaceOnUse"
       x1="28.211"
       id="linearGradient4556">
      <stop
         offset="0"
         stop-opacity=".19417"
         stop-color="#fff"
         id="stop2800" />
      <stop
         offset="1"
         stop-opacity="0"
         stop-color="#fff"
         id="stop2802" />
    </linearGradient>
    <linearGradient
       y2="2.5"
       x2="20.540001"
       gradientTransform="matrix(1.0334,0,0,0.9055,3.5706,32.126)"
       y1="5.9130998"
       gradientUnits="userSpaceOnUse"
       x1="20.540001"
       id="linearGradient4558">
      <stop
         offset="0"
         stop-opacity="0"
         id="stop2782" />
      <stop
         offset="1"
         stop-opacity=".23301"
         stop-color="#fff"
         id="stop2784" />
    </linearGradient>
    <radialGradient
       r="16"
       gradientTransform="matrix(1.5315,0,0,1.028,-3.9699,29.405)"
       cx="15.286"
       cy="33.369999"
       gradientUnits="userSpaceOnUse"
       id="radialGradient4554-3">
      <stop
         offset="0"
         stop-color="#f00"
         id="stop3009-6" />
      <stop
         offset="1"
         stop-color="#800000"
         id="stop3011-7" />
    </radialGradient>
    <radialGradient
       cx="25.712"
       cy="48.735001"
       r="21.856001"
       id="F"
       xlink:href="#E"
       gradientUnits="userSpaceOnUse"
       gradientTransform="matrix(1,0,0,0.09243698,0,44.229759)" />
    <linearGradient
       id="E">
      <stop
         id="R"
         stop-color="#2e3436" />
      <stop
         id="S"
         offset="1"
         stop-color="#2e3436"
         stop-opacity="0" />
    </linearGradient>
    <radialGradient
       cx="13.559"
       cy="12.06"
       r="16.219"
       id="G"
       xlink:href="#D"
       gradientUnits="userSpaceOnUse"
       gradientTransform="matrix(0.6174379,2.5604989,-3.7886681,0.9135993,49.367351,-37.86865)" />
    <linearGradient
       id="D">
      <stop
         id="P"
         stop-color="#eeeeec" />
      <stop
         id="Q"
         offset="1"
         stop-color="#d3d7cf" />
    </linearGradient>
    <linearGradient
       y1="2.438"
       x2="0"
       y2="43.34"
       id="H"
       xlink:href="#C"
       gradientUnits="userSpaceOnUse" />
    <linearGradient
       id="C">
      <stop
         id="N"
         stop-color="#fff"
         stop-opacity="0.8" />
      <stop
         id="O"
         offset="1"
         stop-color="#fff"
         stop-opacity="0" />
    </linearGradient>
    <filter
       x="-0.16"
       y="-0.15099999"
       width="1.321"
       height="1.302"
       id="K"
       style="color-interpolation-filters:sRGB">
      <feGaussianBlur
         stdDeviation="0.5327"
         id="T" />
    </filter>
    <radialGradient
       cx="34.130001"
       cy="8.6090002"
       r="3.03"
       id="I"
       xlink:href="#D"
       gradientUnits="userSpaceOnUse"
       gradientTransform="matrix(1.9999999,2.0717464e-7,-2.1678585e-7,2.0927836,-34.124995,-9.2675658)" />
    <linearGradient
       x1="34.130001"
       y1="8.75"
       x2="36.533001"
       y2="6.3629999"
       id="J"
       xlink:href="#C"
       gradientUnits="userSpaceOnUse" />
    <linearGradient
       id="linearGradient2431">
      <stop
         id="stop2433"
         style="stop-color:#c6c6c6"
         offset="0" />
      <stop
         id="stop2439"
         style="stop-color:#434343"
         offset=".13501" />
      <stop
         id="stop2441"
         style="stop-color:#f9f9f9"
         offset=".64724" />
      <stop
         id="stop2435"
         style="stop-color:#bcbcbc"
         offset="1" />
    </linearGradient>
    <radialGradient
       id="radialGradient4554-36"
       gradientUnits="userSpaceOnUse"
       cy="33.369999"
       cx="15.286"
       gradientTransform="matrix(1.5315,0,0,1.028,-3.9699,29.405)"
       r="16">
      <stop
         id="stop3009-7"
         stop-color="#f00"
         offset="0" />
      <stop
         id="stop3011-5"
         stop-color="#800000"
         offset="1" />
    </radialGradient>
    <inkscape:perspective
       id="perspective10"
       inkscape:persp3d-origin="372.04724 : 350.78737 : 1"
       inkscape:vp_z="744.09448 : 526.18107 : 1"
       inkscape:vp_y="0 : 999.99995 : 0"
       inkscape:vp_x="0 : 526.18107 : 1"
       sodipodi:type="inkscape:persp3d" />
    <inkscape:perspective
       sodipodi:type="inkscape:persp3d"
       inkscape:vp_x="0 : 526.18107 : 1"
       inkscape:vp_y="0 : 999.99995 : 0"
       inkscape:vp_z="744.09448 : 526.18107 : 1"
       inkscape:persp3d-origin="372.04724 : 350.78737 : 1"
       id="perspective2390" />
  </defs>
  <sodipodi:namedview
     id="base"
     pagecolor="#ffffff"
     bordercolor="#666666"
     borderopacity="1.0"
     inkscape:pageopacity="0.0"
     inkscape:pageshadow="2"
     inkscape:zoom="2.5939139"
     inkscape:cx="130.21263"
     inkscape:cy="-14.443865"
     inkscape:document-units="px"
     inkscape:current-layer="layer1"
     showgrid="false"
     fit-margin-top="1"
     fit-margin-left="1"
     fit-margin-right="1"
     fit-margin-bottom="1"
     width="115mm"
     height="25mm" />
  <metadata
     id="metadata4475">
    <rdf:RDF>
      <cc:Work
         rdf:about="">
        <dc:format>image/svg+xml</dc:format>
        <dc:type
           rdf:resource="http://purl.org/dc/dcmitype/StillImage" />
        <dc:title></dc:title>
      </cc:Work>
    </rdf:RDF>
  </metadata>
  <g
     inkscape:label="Layer 1"
     inkscape:groupmode="layer"
     id="layer1"
     transform="translate(-106.92649,-61.686869)">
    <g
       transform="matrix(0.33645741,0,0,0.33645741,95.001571,19.344515)"
       id="layer1-7"
       inkscape:label="Layer 1">
      <g
         style="stroke:#808080;stroke-width:1;stroke-miterlimit:4;stroke-dasharray:none"
         id="g4146">
        <path
           sodipodi:nodetypes="ccccccccccccccsscscc"
           inkscape:connector-curvature="0"
           id="path4396"
           d="m 79.860531,139.47122 c -10.36585,8.27311 -15.852459,26.45657 -31.394531,17.9336 -1.023991,-0.57448 -1.493018,-0.7175 -1.492188,-0.45508 6.71e-4,0.21037 3.760113,9.84952 8.355469,21.41992 l 8.355469,21.03711 1.517578,0.92773 c 2.939285,1.79839 4.316642,2.17856 7.9375,2.18946 3.240381,0.01 3.311914,-0.004 5.486328,-1.07813 9.463606,-4.85306 12.675519,-18.99027 23.335934,-21.20117 2.70525,-0.50009 6.42203,0.36013 9.57813,2.21484 l 1.75,1.02735 7.91015,19.90039 c 4.35073,10.94497 8.04529,20.19926 8.21094,20.5664 0.19841,0.43978 0.45407,0.60891 0.74805,0.4961 0.24542,-0.0942 0.75449,-0.2473 1.13086,-0.3418 0.37637,-0.0945 0.68359,-0.25899 0.68359,-0.36523 0,-0.50361 -33.831127,-85.17207 -34.029295,-85.16407 -0.883884,0.0342 -2.074219,0.53216 -2.074219,0.86719 0,0.54032 -0.05336,0.528 -1.927734,-0.41797 -4.711098,-2.3 -10.07483,-2.23118 -14.082031,0.44336 z"
           style="fill:#ffffff;stroke:#808080;stroke-width:2;stroke-miterlimit:4;stroke-dasharray:none" />
        <path
           style="fill:#000000;stroke:#808080;stroke-width:1;stroke-miterlimit:4;stroke-dasharray:none"
           d="m 97.900391,138.08008 c -1.587047,0.19364 -3.516315,1.2356 -1.942424,2.94368 11.112053,27.87235 21.916873,55.90731 33.321333,83.63835 1.20008,0.87072 4.29633,-0.41983 2.78125,-2.14063 C 120.92151,194.31569 109.75339,166.10861 98.25,138.04883 l -0.349609,0.0312 z"
           id="path4398"
           inkscape:connector-curvature="0" />
      </g>
      <path
         inkscape:connector-curvature="0"
         id="path2396"
         d="m 129.483,224.06961 c -0.16565,-0.36714 -3.86086,-9.6225 -8.21159,-20.56747 l -7.91041,-19.89995 -1.74877,-1.02768 c -3.1561,-1.85471 -6.87389,-2.71392 -9.57914,-2.21383 -4.073538,0.75304 -7.545438,3.716 -13.625238,11.62792 -4.44067,5.77886 -6.86178,8.16551 -9.71095,9.57273 -2.17441,1.07396 -2.24496,1.08782 -5.48534,1.07805 -3.62085,-0.0109 -4.99897,-0.39101 -7.93826,-2.1894 l -1.51645,-0.92783 -8.35519,-21.03709 c -4.59536,-11.5704 -8.35575,-21.20922 -8.35642,-21.41959 -8.3e-4,-0.26242 0.46729,-0.11966 1.49128,0.45482 3.5632,1.99899 7.22885,2.86383 9.84566,2.32291 4.06207,-0.83967 7.2561,-3.5449 13.15757,-11.14398 3.96186,-5.10154 6.40887,-7.75835 8.39246,-9.11205 4.1041,-2.80083 9.09937,-2.9582 14.0818,-0.44362 1.87437,0.94597 1.92703,0.95737 1.92703,0.41705 0,-0.33503 1.19096,-0.8325 2.07484,-0.86667 0.19817,-0.008 34.029358,84.66045 34.029358,85.16406 0,0.10624 -0.30793,0.27046 -0.6843,0.36492 -0.37637,0.0945 -0.88511,0.24881 -1.13053,0.34298 -0.29398,0.11281 -0.549,-0.0565 -0.74741,-0.49628 z M 77.168112,201.68428 c 0.77957,-0.29621 2.24931,-1.1322 3.26607,-1.85775 l 1.84866,-1.31917 -0.47587,-1.19832 c -0.26173,-0.65907 -1.00041,-2.50704 -1.64151,-4.10659 l -1.16565,-2.90828 -1.69257,1.27397 c -1.6768,1.26211 -4.18116,2.41045 -5.2568,2.41045 -0.30685,0 -0.55791,0.14809 -0.55791,0.32909 0,0.181 0.66147,2.03596 1.46993,4.12213 1.65754,4.27717 1.61032,4.24063 4.20565,3.25447 z m -5.95986,-7.56622 c 0,-0.0796 -0.70361,-1.89807 -1.56357,-4.04095 -0.85996,-2.14287 -1.56357,-3.98755 -1.56357,-4.09929 0,-0.11173 0.73559,-0.41543 1.63464,-0.67489 1.73125,-0.49963 2.96944,-1.15389 4.66054,-2.46263 0.56975,-0.44092 1.09958,-0.80168 1.17741,-0.80168 0.0778,0 0.81424,1.69505 1.63648,3.76677 0.82225,2.07173 1.61511,3.89471 1.76193,4.05107 0.30058,0.32011 1.80879,-1.2623 4.53854,-4.76178 0.94523,-1.21176 1.7457,-2.2032 1.77883,-2.2032 0.0331,0 0.74163,1.72703 1.57444,3.83784 0.83282,2.11082 1.61379,3.83785 1.73549,3.83785 0.1217,0 0.83108,-0.79955 1.57639,-1.77678 0.74531,-0.97723 2.10139,-2.5608 3.01352,-3.51905 l 1.65841,-1.74226 -1.38932,-3.51701 c -0.76413,-1.93435 -1.4776,-3.76309 -1.58549,-4.06386 -0.17587,-0.49021 -0.33054,-0.41659 -1.49318,0.71071 -0.71335,0.69166 -2.12667,2.31297 -3.14072,3.60292 -1.01404,1.28994 -1.88727,2.34535 -1.9405,2.34535 -0.0532,0 -0.82478,-1.86169 -1.71454,-4.13708 -0.88977,-2.2754 -1.6512,-4.09838 -1.69207,-4.05107 -0.0409,0.0473 -1.09623,1.36531 -2.34525,2.92887 -1.24901,1.56358 -2.64947,3.19687 -3.11213,3.62954 l -0.8412,0.78668 -1.50553,-3.91382 c -0.82804,-2.1526 -1.60893,-4.02599 -1.73532,-4.16309 -0.12688,-0.13764 -0.78546,0.20603 -1.47043,0.76732 -1.37773,1.12894 -3.85148,2.36767 -5.26843,2.63814 -0.50816,0.097 -0.92393,0.26263 -0.92393,0.36806 0,0.10543 0.70361,1.94495 1.56357,4.08782 0.85996,2.14287 1.56357,3.9613 1.56357,4.04095 0,0.30479 -2.79559,0.12601 -4.34653,-0.27796 -0.89273,-0.23253 -2.51871,-0.87377 -3.61329,-1.425 -1.09459,-0.55122 -1.99016,-0.96264 -1.99016,-0.91426 0,0.0484 0.73757,1.93693 1.63903,4.19678 l 1.63903,4.10881 2.12775,1.06316 c 1.17026,0.58473 2.83135,1.24793 3.69131,1.47378 1.52084,0.39942 4.26428,0.5945 4.26428,0.30324 z m 39.786528,-15.66888 c -0.80254,-2.0129 -1.59954,-3.82972 -1.77111,-4.03736 -0.4786,-0.57923 -2.69331,-1.62421 -4.85509,-2.2908 -2.20142,-0.67882 -5.167468,-0.82645 -4.934298,-0.24559 0.0785,0.19545 0.817818,2.05041 1.643008,4.12213 l 1.50035,3.76678 1.76889,0 c 1.90924,0 4.59653,0.73772 6.66162,1.82875 0.70361,0.37173 1.31674,0.63989 1.36254,0.5959 0.0458,-0.044 -0.57337,-1.7269 -1.37591,-3.73981 z m -46.738968,-1.31572 c 0.0753,-0.19613 -0.55614,-2.08307 -1.4031,-4.1932 -0.84697,-2.11014 -1.48069,-3.93255 -1.40827,-4.04982 0.0724,-0.11727 0.31122,-0.21322 0.53066,-0.21322 0.93325,0 3.65882,-1.26517 5.25165,-2.43775 1.69724,-1.24943 1.72163,-1.25715 1.96619,-0.6219 1.04931,2.7256 2.9826,7.49258 3.08558,7.60822 0.16191,0.18179 2.18624,-2.07967 4.38658,-4.90042 0.94375,-1.20984 1.8084,-2.14254 1.92147,-2.07266 0.11306,0.0699 0.88188,1.86462 1.70849,3.98831 0.82662,2.1237 1.59571,3.82397 1.7091,3.77837 0.1134,-0.0456 1.23482,-1.36218 2.49206,-2.92574 1.25724,-1.56357 2.6157,-3.14932 3.01881,-3.52388 l 0.73292,-0.68102 0.26465,0.68102 c 0.14556,0.37456 0.85855,2.21098 1.58442,4.08091 0.72588,1.86994 1.3657,3.44581 1.42183,3.50194 0.0561,0.0561 0.72228,-0.3738 1.48034,-0.9554 1.45267,-1.11452 4.04297,-2.38986 4.86888,-2.39721 1.36903,-0.0122 1.34304,-0.35379 -0.34888,-4.58632 -0.89703,-2.24401 -1.65701,-4.1073 -1.68885,-4.14062 -0.0318,-0.0333 -0.69157,0.10707 -1.46609,0.312 -1.74427,0.46151 -3.34549,1.27123 -4.78764,2.42103 -0.60784,0.48462 -1.18351,0.8801 -1.27928,0.87884 -0.0958,-0.001 -0.86522,-1.76027 -1.7099,-3.90891 -0.84467,-2.14865 -1.58294,-3.96262 -1.6406,-4.03105 -0.19027,-0.22583 -2.67394,2.36084 -4.41867,4.6019 -0.94339,1.21177 -1.80633,2.20321 -1.91763,2.20321 -0.1113,0 -0.88656,-1.73411 -1.72279,-3.85358 -0.83623,-2.11947 -1.59671,-3.90073 -1.68994,-3.95835 -0.0932,-0.0576 -1.08458,1.06883 -2.20299,2.50323 -2.02967,2.60314 -3.96296,4.66861 -4.15249,4.43641 -0.0551,-0.0675 -0.78142,-1.84974 -1.61406,-3.96056 -0.83265,-2.11081 -1.54727,-3.88136 -1.58806,-3.93455 -0.0408,-0.0532 -0.75556,0.41071 -1.5884,1.03088 -1.95165,1.4533 -2.59042,1.7796 -4.54221,2.32029 l -1.60654,0.44504 1.53546,3.82569 c 0.84451,2.10413 1.53548,4.00512 1.53548,4.22442 0,0.3222 -0.36064,0.36011 -1.87873,0.19754 -2.10343,-0.22526 -4.09271,-0.84545 -6.30086,-1.9644 -0.81735,-0.41419 -1.4861,-0.64426 -1.4861,-0.51127 0,0.80782 2.96577,7.68096 3.53254,8.18664 1.86735,1.66605 9.01549,3.63697 9.41497,2.59594 z m 40.006358,-15.59284 -1.64043,-4.09265 -1.76176,-0.93172 c -2.902758,-1.53514 -8.046068,-2.61395 -8.046068,-1.68766 0,0.20109 0.6909,2.08803 1.53532,4.1932 l 1.53533,3.82759 1.85898,0.18807 c 2.309728,0.23367 4.410618,0.861 6.441768,1.92353 0.85996,0.44987 1.59815,0.78517 1.64042,0.74511 0.0423,-0.0401 -0.66133,-1.91451 -1.56356,-4.16547 z m -15.740768,-5.63383 c 0.56277,-0.28271 1.53494,-0.66898 2.16037,-0.85837 0.62543,-0.18939 1.28891,-0.39146 1.4744,-0.44903 0.22366,-0.0694 -0.19139,-1.42672 -1.23216,-4.02947 -0.86317,-2.15863 -1.68247,-4.04222 -1.82066,-4.18576 -0.58294,-0.60552 -4.09521,0.89757 -6.75162,2.8894 l -0.85144,0.63843 -1.55907,-3.89658 c -0.85748,-2.14311 -1.6951,-3.94192 -1.86136,-3.99734 -0.28324,-0.0944 -4.81987,5.15996 -5.71746,6.62203 -0.37732,0.61462 -0.28963,0.9705 1.11867,4.5399 0.84045,2.13015 1.6017,3.9185 1.69166,3.9741 0.09,0.0556 1.11685,-1.10402 2.28195,-2.57694 2.14654,-2.71366 3.89615,-4.58279 4.08029,-4.35903 0.0835,0.10149 2.16045,5.25225 3.05965,7.5879 0.24706,0.64175 0.24853,0.6414 1.57542,-0.37143 0.73046,-0.55758 1.78857,-1.24509 2.35136,-1.52781 z m 10.54678,-7.26701 c 0,-0.0756 -0.64567,-1.77066 -1.43481,-3.76677 -1.62648,-4.11413 -1.94517,-4.48029 -5.01562,-5.76278 -1.92672,-0.80477 -6.15832,-1.69891 -6.4866,-1.37062 -0.0827,0.0827 0.58296,2.02437 1.47932,4.31476 l 1.62975,4.16434 1.71577,0.004 c 1.79214,0.004 5.67877,1.15996 6.99157,2.07948 0.67022,0.46944 1.12062,0.6052 1.12062,0.33779 z"
         style="fill:#000000" />
    </g>
  </g>
</svg>
