<?xml version="1.0" encoding="UTF-8" standalone="no"?>
<svg
   xmlns:dc="http://purl.org/dc/elements/1.1/"
   xmlns:cc="http://creativecommons.org/ns#"
   xmlns:rdf="http://www.w3.org/1999/02/22-rdf-syntax-ns#"
   xmlns:svg="http://www.w3.org/2000/svg"
   xmlns="http://www.w3.org/2000/svg"
   xmlns:sodipodi="http://sodipodi.sourceforge.net/DTD/sodipodi-0.dtd"
   xmlns:inkscape="http://www.inkscape.org/namespaces/inkscape"
   viewBox="0 0 156.09078 137.23337"
   x="0px"
   y="0px"
   id="svg2"
   version="1.1"
   inkscape:version="0.91 r13725"
   sodipodi:docname="caravel.svg"
   width="156.09077"
   height="137.23337">
  <metadata
     id="metadata12">
    <rdf:RDF>
      <cc:Work
         rdf:about="">
        <dc:format>image/svg+xml</dc:format>
        <dc:type
           rdf:resource="http://purl.org/dc/dcmitype/StillImage" />
        <dc:title>sailing</dc:title>
      </cc:Work>
    </rdf:RDF>
  </metadata>
  <defs
     id="defs10" />
  <sodipodi:namedview
     pagecolor="#ffffff"
     bordercolor="#666666"
     borderopacity="1"
     objecttolerance="10"
     gridtolerance="10"
     guidetolerance="10"
     inkscape:pageopacity="0"
     inkscape:pageshadow="2"
     inkscape:window-width="640"
     inkscape:window-height="480"
     id="namedview8"
     showgrid="false"
     fit-margin-top="0"
     fit-margin-left="0"
     fit-margin-right="0"
     fit-margin-bottom="0"
     showguides="true"
     inkscape:guide-bbox="true"
     inkscape:zoom="0.9050967"
     inkscape:cx="-155.32926"
     inkscape:cy="-133.40755"
     inkscape:current-layer="svg2">
    <inkscape:grid
       type="xygrid"
       id="grid4150"
       originx="-13.991394"
       originy="168.36" />
    <sodipodi:guide
       position="-36.161818,286.60227"
       orientation="0,1"
       id="guide4152" />
  </sodipodi:namedview>
  <title
     id="title4">sailing</title>
  <path
     inkscape:connector-curvature="0"
     id="path4153"
     d="m 131.01448,87.919869 -9.58316,9.58314 -84.68835,0 -9.583154,-9.58314 c -2.005777,-2.00578 -1.337184,-3.7887 1.560049,-3.7887 l 100.734565,0 c 2.89723,0 3.56582,1.78292 1.56005,3.7887 z"
     style="fill:#000000;fill-opacity:1" />
  <path
     inkscape:connector-curvature="0"
     id="path4155"
     d="m 77.749957,77.445259 43.012773,0 a 2.2286405,2.2286405 0 0 0 2.22864,-2.67437 L 106.72229,1.671477 c -0.44572,-2.228636 -1.11431,-2.228636 -1.33718,0 -2.45151,24.737912 -11.811795,49.030092 -29.640929,72.653692 a 2.2286405,2.2286405 0 0 0 2.005776,3.12009 z"
     style="fill:#008080" />
  <path
     inkscape:connector-curvature="0"
     id="path4157"
     d="m 36.74297,77.445259 31.646697,0 a 1.5600483,1.5600483 0 0 0 1.560048,-2.00578 L 58.137921,22.620709 c -0.445729,-2.228656 -1.11432,-2.005788 -1.337184,0 -1.782913,17.82911 -8.914563,35.43537 -21.617816,52.37305 a 1.5600483,1.5600483 0 0 0 1.560049,2.4515 z"
     style="fill:#0080a3;fill-opacity:1" />
  <g
     style="color:#000000;font-style:normal;font-variant:normal;font-weight:normal;font-stretch:normal;font-size:49.83431625px;line-height:100%;font-family:'GFS Artemisia';-inkscape-font-specification:'GFS Artemisia';text-indent:0;text-align:start;text-decoration:none;text-decoration-line:none;text-decoration-style:solid;text-decoration-color:#000000;letter-spacing:0px;word-spacing:0px;text-transform:none;direction:ltr;block-progression:tb;writing-mode:lr-tb;baseline-shift:baseline;text-anchor:start;white-space:normal;clip-rule:nonzero;display:inline;overflow:visible;visibility:visible;opacity:1;isolation:auto;mix-blend-mode:normal;color-interpolation:sRGB;color-interpolation-filters:linearRGB;solid-color:#000000;solid-opacity:1;fill:#000000;fill-opacity:1;fill-rule:nonzero;stroke:none;stroke-width:1px;stroke-linecap:butt;stroke-linejoin:miter;stroke-miterlimit:4;stroke-dasharray:none;stroke-dashoffset:0;stroke-opacity:1;marker:none;color-rendering:auto;image-rendering:auto;shape-rendering:auto;text-rendering:auto;enable-background:accumulate"
     id="text4159">
    <path
       d="m 21.138678,115.58657 c -0.398675,-1.34553 -1.395361,-3.08973 -6.279124,-3.13956 -5.5814434,-0.0498 -12.6579163,4.33558 -14.50178604,12.85725 -1.74420106,8.22266 3.23923054,11.66123 7.37547884,11.66123 4.2359172,0 8.0731592,-2.24254 12.1097392,-8.17283 l -0.598012,-0.44851 c -2.292379,2.64122 -4.73426,4.83393 -8.471834,4.83393 -4.3355855,0 -7.1263072,-3.88707 -5.8804493,-9.91703 1.6445325,-7.67448 6.7774673,-9.02001 8.7210053,-9.21934 1.943538,-0.19934 3.538237,0.69768 3.588071,2.14287 0.04983,1.39536 -0.797349,2.19271 -1.245858,2.74089 0.299006,0.299 0.946852,1.29569 2.441881,1.24586 2.142876,-0.0997 3.239231,-2.89039 2.740888,-4.58476 z"
       style="font-style:italic;font-variant:normal;font-weight:normal;font-stretch:normal;font-family:'GFS Artemisia';-inkscape-font-specification:'GFS Artemisia'"
       id="path4141" />
    <path
       d="m 47.821061,131.03521 -1.245858,-0.39868 c 0,0 -1.345526,3.4884 -3.089728,3.4884 -1.943538,0 -0.598011,-3.73757 0.199338,-7.32564 l 1.245858,-5.93028 c 0,0 1.196023,-3.93691 -0.498344,-6.07979 -1.295692,-1.64453 -3.538236,-2.19271 -6.777467,-2.19271 -5.382106,0.0498 -8.32233,1.99337 -9.368851,3.4884 -1.245858,1.7442 -0.897018,4.28575 1.146189,4.43526 1.694367,0.0997 3.488402,-0.74752 4.03658,-1.54487 -0.299006,-0.44851 -1.295692,-0.49834 -0.797349,-2.09304 0.498343,-1.5947 2.19271,-2.69105 4.73426,-2.69105 2.441881,0 4.684426,1.19602 4.03658,4.03658 l -0.697681,3.03989 c -11.760899,1.94354 -16.39549,5.18277 -17.442011,10.36554 -0.847183,4.23592 2.142876,5.18277 4.883763,5.33227 2.691053,0.19934 7.375479,-1.5947 10.066532,-3.83724 -0.498343,2.89039 0.34884,4.28575 3.438568,4.08641 2.093041,-0.1495 4.285751,-1.5947 6.129621,-6.17945 z m -7.325644,-8.52167 c -0.697681,3.08973 -1.295693,5.93028 -1.943539,9.02001 -1.495029,1.49503 -6.079786,2.59138 -7.62465,2.49172 -1.893704,-0.14951 -3.388734,-1.34553 -2.54155,-4.08642 l 0,-0.0997 c 0.498343,-1.7442 2.641218,-4.98343 12.109739,-7.32564 z"
       style="font-style:italic;font-variant:normal;font-weight:normal;font-stretch:normal;font-family:'GFS Artemisia';-inkscape-font-specification:'GFS Artemisia'"
       id="path4143" />
    <path
       d="m 68.211085,116.78259 c 1.495029,-2.39204 0.598011,-4.58475 -1.744201,-4.28575 -2.292379,0.29901 -3.837243,1.69437 -5.631278,3.4884 -1.295692,1.19603 -3.189396,3.48841 -3.189396,3.48841 0.149503,0 1.345526,-6.02996 1.744201,-6.97681 -2.242545,0.74752 -6.22929,0.34884 -6.877136,0.1495 l -0.34884,1.4452 c 1.245858,-0.0498 2.19271,0.1495 2.292378,0.89702 0.199338,1.04652 -0.598011,5.68111 -1.39536,9.21935 -0.847184,3.58807 -2.890391,11.21272 -3.3389,12.25924 1.196024,-0.34884 3.986746,-0.24917 4.584757,0 0.996687,-5.53161 2.990059,-14.90046 2.990059,-14.90046 0,0 0.897018,-1.19603 4.03658,-3.63791 2.940225,-2.34221 3.787408,-0.84718 3.887077,0.34884 0.598011,-0.1495 2.093041,-0.1495 2.990059,-1.49503 z"
       style="font-style:italic;font-variant:normal;font-weight:normal;font-stretch:normal;font-family:'GFS Artemisia';-inkscape-font-specification:'GFS Artemisia'"
       id="path4145" />
    <path
       d="m 94.054067,131.03521 -1.245858,-0.39868 c 0,0 -1.345527,3.4884 -3.089728,3.4884 -1.943538,0 -0.598012,-3.73757 0.199337,-7.32564 l 1.245858,-5.93028 c 0,0 1.196024,-3.93691 -0.498343,-6.07979 -1.295692,-1.64453 -3.538236,-2.19271 -6.777467,-2.19271 -5.382106,0.0498 -8.322331,1.99337 -9.368851,3.4884 -1.245858,1.7442 -0.897018,4.28575 1.146189,4.43526 1.694367,0.0997 3.488402,-0.74752 4.036579,-1.54487 -0.299005,-0.44851 -1.295692,-0.49834 -0.797349,-2.09304 0.498344,-1.5947 2.19271,-2.69105 4.73426,-2.69105 2.441882,0 4.684426,1.19602 4.03658,4.03658 l -0.69768,3.03989 c -11.760899,1.94354 -16.39549,5.18277 -17.442011,10.36554 -0.847183,4.23592 2.142876,5.18277 4.883763,5.33227 2.691053,0.19934 7.375479,-1.5947 10.066532,-3.83724 -0.498343,2.89039 0.34884,4.28575 3.438568,4.08641 2.093041,-0.1495 4.285751,-1.5947 6.129621,-6.17945 z m -7.325645,-8.52167 c -0.69768,3.08973 -1.295692,5.93028 -1.943538,9.02001 -1.49503,1.49503 -6.079787,2.59138 -7.624651,2.49172 -1.893704,-0.14951 -3.388733,-1.34553 -2.54155,-4.08642 l 0,-0.0997 c 0.498343,-1.7442 2.641219,-4.98343 12.109739,-7.32564 z"
       style="font-style:italic;font-variant:normal;font-weight:normal;font-stretch:normal;font-family:'GFS Artemisia';-inkscape-font-specification:'GFS Artemisia'"
       id="path4147" />
    <path
       d="m 119.02884,115.58657 c 0.29901,-3.4884 -2.59138,-3.3389 -2.94022,-3.23923 -1.5947,0.19934 -2.94023,1.09635 -2.99006,1.09635 -0.0498,0 1.54486,1.34553 0.69768,4.08642 -1.64453,5.33227 -6.32896,12.90709 -8.5715,16.19615 -0.74752,-7.07647 -1.89371,-17.59151 -1.89371,-21.03008 -2.19271,0.59801 -7.026635,0.59801 -7.674481,0.39867 l -0.249171,1.39536 c 1.196023,0 2.441881,-0.0997 3.189396,1.69437 1.146189,2.74089 3.189396,20.23273 3.189396,20.23273 0.44851,-0.0997 2.64122,-0.24917 3.1894,0.0498 0.59801,-1.14619 3.28906,-5.28244 6.92697,-10.06653 3.4884,-4.53493 6.87713,-8.2725 7.1263,-10.81405 z"
       style="font-style:italic;font-variant:normal;font-weight:normal;font-stretch:normal;font-family:'GFS Artemisia';-inkscape-font-specification:'GFS Artemisia'"
       id="path4149" />
    <path
       d="m 141.78133,122.0152 c 0.84718,-6.82731 -2.29238,-9.51836 -7.12631,-9.51836 -4.18608,0 -11.41206,3.0399 -13.55494,12.65792 -1.64453,7.42531 1.64454,11.81073 7.42532,11.81073 7.52498,0 12.01007,-7.07647 12.90709,-8.67117 l -0.74752,-0.34884 c -1.5947,1.8937 -4.58476,5.43194 -9.21935,5.43194 -3.43857,0 -7.67448,-2.04321 -5.88045,-11.36222 l 16.19616,0 z m -4.98344,-1.64454 -10.66454,0 c 1.79404,-4.58475 4.08641,-5.98011 6.92697,-5.98011 4.13625,0 3.93691,3.4884 3.73757,5.98011 z"
       style="font-style:italic;font-variant:normal;font-weight:normal;font-stretch:normal;font-family:'GFS Artemisia';-inkscape-font-specification:'GFS Artemisia'"
       id="path4151" />
    <path
       d="m 156.09078,101.08478 c -2.24254,0.64785 -6.47846,0.44851 -7.17614,0.24917 l -0.29901,1.4452 c 1.19603,0 1.94354,0.1495 1.99338,0.89702 0.39867,3.78741 -4.98343,23.57163 -5.88045,30.00026 -0.19934,1.54486 0.39867,3.38873 2.84055,3.38873 3.38874,0 5.38211,-2.64122 7.92366,-6.8273 l -0.69768,-0.54818 c -2.49172,3.4884 -3.58807,5.03327 -4.98343,5.03327 -1.29569,0 -1.14619,-1.24586 -0.69768,-3.78741 0.19934,-1.39536 5.73094,-26.36235 6.9768,-29.85076 z"
       style="font-style:italic;font-variant:normal;font-weight:normal;font-stretch:normal;font-family:'GFS Artemisia';-inkscape-font-specification:'GFS Artemisia'"
       id="path4154" />
  </g>
</svg>
